<?xml version="1.0" standalone="no"?>
<!DOCTYPE svg PUBLIC "-//W3C//DTD SVG 20010904//EN"
 "http://www.w3.org/TR/2001/REC-SVG-20010904/DTD/svg10.dtd">
<svg version="1.0" xmlns="http://www.w3.org/2000/svg"
 width="800.000000pt" height="800.000000pt" viewBox="0 0 800.000000 800.000000"
 preserveAspectRatio="xMidYMid meet">

<g transform="translate(0.000000,800.000000) scale(0.100000,-0.100000)"
fill="#000000" stroke="none">
<path d="M3795 7984 c-128 -29 -224 -75 -494 -238 -1659 -1003 -2425 -1474
-2442 -1501 -25 -39 -25 -111 0 -151 12 -20 60 -55 137 -101 66 -38 765 -455
1556 -926 790 -472 1442 -857 1448 -857 7 0 712 417 1568 927 1194 712 1559
935 1574 958 24 39 23 111 -1 150 -14 22 -350 231 -1327 825 -719 437 -1346
814 -1392 837 -136 67 -221 86 -402 90 -112 2 -174 -2 -225 -13z"/>
<path d="M574 5596 c-17 -8 -41 -26 -53 -41 l-21 -28 3 -1671 3 -1671 22 -77
c69 -239 206 -445 382 -575 65 -48 2450 -1499 2497 -1519 46 -20 150 -17 198
5 46 21 111 88 131 137 12 28 14 310 14 1822 l0 1788 -1516 904 c-834 498
-1532 913 -1552 922 -44 21 -67 22 -108 4z"/>
<path d="M7340 5603 c-8 -3 -707 -417 -1552 -921 l-1538 -916 0 -1788 c0
-1512 2 -1794 14 -1822 20 -49 85 -116 131 -137 48 -22 152 -25 198 -5 47 20
2432 1471 2497 1519 176 131 313 336 382 575 l22 77 3 1671 3 1671 -22 28
c-33 42 -94 64 -138 48z"/>
</g>
</svg>
